<svg xmlns="http://www.w3.org/2000/svg" viewBox="0 0 520 280" fill="none">
  <g fill="#ffffff">

    <!-- ======================== -->
    <!-- AD MONOGRAM (top center) -->
    <!-- ======================== -->

    <!-- A - Left stroke (thin diagonal going up-right to peak) -->
    <path d="M 198,155 L 247,52 L 253,52 L 206,150 Z"/>

    <!-- A - Right stroke (thick diagonal from peak going down-right, curving into D stem) -->
    <path d="M 250,48 L 282,120 L 275,120 L 247,55 Z"/>

    <!-- A - Crossbar -->
    <path d="M 212,128 L 270,128 L 270,132 L 210,132 Z"/>

    <!-- D - Large circle/oval (open left, like a C shape) -->
    <!-- Outer arc -->
    <path d="
      M 268,32
      C 268,32 270,28 274,28
      C 312,28 342,58 342,96
      C 342,134 312,164 274,164
      C 270,164 268,160 268,160
      L 268,153
      C 268,153 270,157 274,157
      C 308,157 335,130 335,96
      C 335,62 308,35 274,35
      C 270,35 268,38 268,38
      Z
    "/>

    <!-- D - Vertical stem (left edge) -->
    <path d="M 264,32 L 272,32 L 272,164 L 264,164 Z"/>

    <!-- ======================== -->
    <!-- TEXT: A DESIGN STUDIO    -->
    <!-- ======================== -->

    <!-- Large serif A -->
    <!-- A main strokes -->
    <path d="M 28,268 L 64,192 C 66,188 69,186 73,186 C 77,186 80,188 82,192 L 118,268 L 107,268 L 75,201 L 43,268 Z"/>
    <!-- A crossbar -->
    <path d="M 50,250 L 100,250 L 100,255 L 48,255 Z"/>
    <!-- A left serif -->
    <path d="M 22,268 L 22,264 L 48,264 L 48,268 Z"/>
    <!-- A right serif -->
    <path d="M 100,268 L 100,264 L 122,264 L 122,268 Z"/>

    <!-- DESIGN STUDIO -->
    <text x="140" y="266"
      font-family="'Montserrat', Arial, Helvetica, sans-serif"
      font-size="34"
      font-weight="700"
      letter-spacing="10"
      fill="#ffffff"
    >DESIGN STUDIO</text>

  </g>
</svg>
